# Blender 4.1.0
# www.blender.org
mtllib carwheel.mtl
o Cube
v 0.606283 1.194225 -1.083847
v 0.560605 1.669985 1.094723
v 0.000000 1.739352 0.275720
v 0.000000 0.325565 0.230133
v 0.606283 1.702441 0.275720
v 0.000000 0.317967 -0.946815
v 0.000000 1.710103 1.123361
v 0.000000 0.345826 0.897682
v 0.000000 1.222592 -1.115176
v 0.000000 1.687686 -0.341433
v 0.000000 0.320500 -0.396644
v 0.606283 1.650776 -0.341433
v 0.804094 1.140388 -1.031719
v 0.874516 1.208906 0.220418
v 0.809500 1.227939 1.016444
v 0.522433 1.210148 2.331050
v 0.873755 1.167034 -0.399177
v 0.973388 0.609648 -1.009925
v 0.875619 0.317967 -0.968608
v 0.886185 0.345826 0.914126
v 0.999919 0.609648 0.970857
v 0.924555 0.325565 0.235614
v 1.038289 0.609648 0.208262
v 1.016363 0.609648 -0.426584
v 0.897147 0.320500 -0.396644
v 0.000000 1.146431 -1.782689
v 0.606283 1.100238 -1.762752
v 0.000000 1.022934 -2.278769
v 0.000000 0.328097 -2.102189
v 0.789452 1.021864 -2.088063
v 0.788446 0.328097 -2.093472
v 0.902181 0.609968 -2.167735
v 0.000000 0.922205 -2.391692
v 0.000000 0.379327 -2.394928
v 0.736866 0.894408 -2.214498
v 0.748838 0.379327 -2.220582
v 0.862573 0.610123 -2.320594
v 0.000000 0.603732 -2.509379
v 0.550454 1.295765 1.781242
v 0.000000 1.336347 1.802541
v 0.000000 0.407116 1.880509
v 0.782910 1.225507 1.810184
v 0.916441 0.777448 1.831418
v 0.834428 0.471616 1.844588
v 0.000000 1.271276 2.358085
v 0.000000 1.094651 2.413603
v 0.000000 0.495251 2.379564
v 0.758577 1.149450 2.295589
v 0.865628 0.761299 2.344470
v 0.801002 0.517456 2.311681
v 0.000000 0.768345 2.492029
v -0.606283 1.194225 -1.083847
v -0.560605 1.669985 1.094723
v -0.606283 1.702441 0.275720
v -0.606283 1.650776 -0.341433
v -0.804094 1.140388 -1.031719
v -0.874516 1.208906 0.220418
v -0.809500 1.227939 1.016444
v -0.522433 1.210148 2.331050
v -0.873755 1.167034 -0.399177
v -0.973388 0.609648 -1.009925
v -0.875619 0.317967 -0.968608
v -0.886185 0.345826 0.914126
v -0.999919 0.609648 0.970857
v -0.924555 0.325565 0.235614
v -1.038289 0.609648 0.208262
v -1.016363 0.609648 -0.426584
v -0.897147 0.320500 -0.396644
v -0.606283 1.100238 -1.762752
v -0.789452 1.021864 -2.088063
v -0.788446 0.328097 -2.093472
v -0.902181 0.609968 -2.167735
v -0.736866 0.894408 -2.214498
v -0.748838 0.379327 -2.220582
v -0.862573 0.610123 -2.320594
v -0.550454 1.295765 1.781242
v -0.782910 1.225507 1.810184
v -0.916441 0.777448 1.831418
v -0.834428 0.471616 1.844588
v -0.758577 1.149450 2.295589
v -0.865628 0.761299 2.344470
v -0.801002 0.517456 2.311681
vn 0.1861 0.9302 -0.3163
vn 0.5066 0.8288 0.2378
vn -0.0000 0.9998 -0.0223
vn -0.0000 -0.9998 0.0190
vn 0.5347 0.8451 -0.0033
vn -0.0000 -1.0000 -0.0021
vn -0.0000 0.9626 0.2711
vn -0.0000 -0.9980 0.0638
vn -0.0000 0.9455 -0.3255
vn -0.0000 0.9517 -0.3071
vn -0.0000 -1.0000 0.0063
vn 0.4826 0.8425 -0.2394
vn 0.7522 0.6275 -0.2011
vn 0.9262 0.3768 0.0139
vn 0.9080 0.4090 0.0906
vn 0.1763 0.7151 0.6764
vn 0.9235 0.3773 -0.0694
vn 0.9967 -0.0393 -0.0706
vn 0.5700 -0.8208 -0.0368
vn 0.5602 -0.8236 0.0884
vn 0.9954 -0.0569 0.0774
vn 0.5655 -0.8245 0.0187
vn 0.9981 -0.0608 0.0126
vn 0.9971 -0.0528 -0.0551
vn 0.5607 -0.8277 -0.0218
vn -0.0000 0.9844 -0.1758
vn 0.1432 0.9773 -0.1561
vn -0.0000 0.8553 -0.5181
vn -0.0000 -0.9920 -0.1259
vn 0.6031 0.7223 -0.3385
vn 0.5348 -0.8292 -0.1625
vn 0.9642 -0.0402 -0.2623
vn -0.0000 0.5454 -0.8382
vn -0.0000 -0.7597 -0.6503
vn 0.4587 0.5229 -0.7185
vn 0.4121 -0.7370 -0.5357
vn 0.6378 -0.0417 -0.7690
vn -0.0000 -0.0431 -0.9991
vn 0.2624 0.9389 0.2227
vn -0.0000 0.9498 0.3130
vn -0.0000 -0.9929 0.1193
vn 0.6916 0.7167 0.0893
vn 0.9959 0.0162 0.0888
vn 0.6113 -0.7794 0.1372
vn -0.0000 0.7368 0.6761
vn -0.0000 0.1962 0.9806
vn -0.0000 -0.7474 0.6643
vn 0.5771 0.5884 0.5664
vn 0.7470 -0.0241 0.6644
vn 0.5106 -0.6709 0.5378
vn -0.0000 -0.0422 0.9991
vn -0.1861 0.9302 -0.3163
vn -0.5066 0.8288 0.2378
vn -0.5347 0.8451 -0.0033
vn -0.4826 0.8425 -0.2394
vn -0.7522 0.6275 -0.2011
vn -0.9262 0.3768 0.0139
vn -0.9080 0.4090 0.0906
vn -0.1763 0.7151 0.6764
vn -0.9235 0.3773 -0.0694
vn -0.9967 -0.0393 -0.0706
vn -0.5700 -0.8208 -0.0368
vn -0.5602 -0.8236 0.0884
vn -0.9954 -0.0569 0.0774
vn -0.5655 -0.8245 0.0187
vn -0.9981 -0.0608 0.0126
vn -0.9971 -0.0528 -0.0551
vn -0.5607 -0.8277 -0.0218
vn -0.1432 0.9773 -0.1561
vn -0.6031 0.7223 -0.3385
vn -0.5348 -0.8292 -0.1625
vn -0.9642 -0.0402 -0.2623
vn -0.4587 0.5229 -0.7185
vn -0.4121 -0.7370 -0.5357
vn -0.6378 -0.0417 -0.7690
vn -0.2624 0.9389 0.2227
vn -0.6916 0.7167 0.0893
vn -0.9959 0.0162 0.0888
vn -0.6113 -0.7794 0.1372
vn -0.5771 0.5884 0.5664
vn -0.7470 -0.0241 0.6644
vn -0.5106 -0.6709 0.5378
vt 0.107380 0.705005
vt 0.007459 0.558563
vt 0.104195 0.572212
vt 0.784597 0.352977
vt 0.658449 0.355100
vt 0.669921 0.183693
vt 0.795316 0.186727
vt 0.218327 0.580328
vt 0.098783 0.442292
vt 0.221427 0.447357
vt 0.476127 0.581569
vt 0.288273 0.581480
vt 0.282588 0.449063
vt 0.476180 0.450303
vt -0.000000 0.429106
vt 0.011876 0.257989
vt 0.100069 0.275787
vt 0.645573 0.810167
vt 0.518965 0.814278
vt 0.518470 0.672756
vt 0.645573 0.670922
vt 0.529498 0.000293
vt 0.656277 0.000000
vt 0.658449 0.128836
vt 0.531670 0.129130
vt 0.476180 0.310483
vt 0.290624 0.306952
vt 0.301086 0.111976
vt 0.476059 0.104598
vt 0.658449 0.306459
vt 0.541014 0.300776
vt 0.292724 0.701267
vt 0.476072 0.696790
vt 0.475898 0.938743
vt 0.310806 0.936839
vt 0.226112 0.287855
vt 0.658449 0.013804
vt 0.708831 0.000000
vt 0.714822 0.183693
vt 0.658449 0.182008
vt 0.280641 0.575969
vt 0.278404 0.695788
vt 0.215817 0.702590
vt 0.282588 0.301490
vt 0.282588 0.443495
vt 0.643572 0.567844
vt 0.479275 0.604354
vt 0.475747 1.000000
vt 0.318888 0.963414
vt 0.210560 0.945205
vt 0.126649 0.926795
vt 0.271513 0.931511
vt 0.476180 0.824659
vt 0.659008 0.360895
vt 0.685730 0.355100
vt 0.684875 0.540043
vt 0.658449 0.521983
vt 0.828328 0.355100
vt 0.260717 0.957993
vt 0.210291 0.977341
vt 0.532684 0.446979
vt 0.648021 0.451123
vt 0.646655 0.567844
vt 0.536509 0.562634
vt 0.153364 0.954104
vt 0.784929 0.366383
vt 0.784929 0.536469
vt 0.749915 0.519570
vt 0.754722 0.360762
vt 0.482435 0.453524
vt 0.485714 0.555636
vt 0.476180 0.287366
vt 0.105255 0.109737
vt 0.196954 0.107137
vt 0.262109 0.106246
vt 0.791054 0.018735
vt 0.805017 0.068394
vt 0.820954 0.177207
vt 0.783624 0.179723
vt 0.307963 0.014116
vt 0.475778 -0.000000
vt 0.203849 -0.000000
vt 0.255553 0.008348
vt 0.124118 0.008603
vt 0.093879 0.116245
s 1
usemtl Material
f 13/1/13 12/2/12 17/3/17
f 1/4/1 9/5/9 10/6/10 12/7/12
f 24/8/24 17/3/17 14/9/14 23/10/23
f 11/11/11 25/12/25 22/13/22 4/14/4
f 14/9/14 5/15/5 2/16/2 15/17/15
f 9/18/9 1/19/1 27/20/27 26/21/26
f 17/3/17 12/2/12 5/15/5 14/9/14
f 12/22/12 10/23/10 3/24/3 5/25/5
f 8/26/8 20/27/20 44/28/44 41/29/41
f 5/25/5 3/24/3 7/30/7 2/31/2
f 19/32/19 6/33/6 29/34/29 31/35/31
f 4/14/4 22/13/22 20/27/20 8/26/8
f 23/10/23 14/9/14 15/17/15 21/36/21
f 50/37/50 49/38/49 51/39/51 47/40/47
f 6/33/6 19/32/19 25/12/25 11/11/11
f 25/41/25 19/42/19 18/43/18 24/8/24
f 20/44/20 22/45/22 23/10/23 21/36/21
f 22/45/22 25/41/25 24/8/24 23/10/23
f 18/43/18 13/1/13 17/3/17 24/8/24
f 28/46/28 26/21/26 27/20/27 30/47/30
f 31/35/31 29/34/29 34/48/34 36/49/36
f 13/1/13 18/43/18 32/50/32 30/51/30
f 18/43/18 19/42/19 31/52/31 32/50/32
f 1/19/1 13/53/13 30/47/30 27/20/27
f 34/54/34 38/55/38 37/56/37 36/57/36
f 12/7/12 13/58/13 1/4/1
f 32/50/32 31/52/31 36/59/36 37/60/37
f 39/61/39 40/62/40 45/63/45 16/64/16
f 30/51/30 32/50/32 37/60/37 35/65/35
f 28/66/28 30/67/30 35/68/35 33/69/33
f 37/56/37 38/55/38 33/69/33 35/68/35
f 42/70/42 39/61/39 16/64/16 48/71/48
f 15/72/15 39/61/39 42/70/42
f 21/36/21 15/17/15 42/73/42 43/74/43
f 20/44/20 21/36/21 43/74/43 44/75/44
f 2/31/2 7/30/7 40/62/40 39/61/39
f 48/76/48 16/77/16 45/78/45 46/79/46
f 41/29/41 44/28/44 50/80/50 47/81/47
f 44/75/44 43/74/43 49/82/49 50/83/50
f 43/74/43 42/73/42 48/84/48 49/82/49
f 51/39/51 49/38/49 48/76/48 46/79/46
f 39/85/39 15/17/15 2/16/2
f 56/1/56 60/3/60 55/2/55
f 52/4/52 55/7/55 10/6/10 9/5/9
f 67/8/67 66/10/66 57/9/57 60/3/60
f 11/11/11 4/14/4 65/13/65 68/12/68
f 57/9/57 58/17/58 53/16/53 54/15/54
f 9/18/9 26/21/26 69/20/69 52/19/52
f 60/3/60 57/9/57 54/15/54 55/2/55
f 55/22/55 54/25/54 3/24/3 10/23/10
f 8/26/8 41/29/41 79/28/79 63/27/63
f 54/25/54 53/31/53 7/30/7 3/24/3
f 62/32/62 71/35/71 29/34/29 6/33/6
f 4/14/4 8/26/8 63/27/63 65/13/65
f 66/10/66 64/36/64 58/17/58 57/9/57
f 82/37/82 47/40/47 51/39/51 81/38/81
f 6/33/6 11/11/11 68/12/68 62/32/62
f 68/41/68 67/8/67 61/43/61 62/42/62
f 63/44/63 64/36/64 66/10/66 65/45/65
f 65/45/65 66/10/66 67/8/67 68/41/68
f 61/43/61 67/8/67 60/3/60 56/1/56
f 28/46/28 70/47/70 69/20/69 26/21/26
f 71/35/71 74/49/74 34/48/34 29/34/29
f 56/1/56 70/51/70 72/50/72 61/43/61
f 61/43/61 72/50/72 71/52/71 62/42/62
f 52/19/52 69/20/69 70/47/70 56/53/56
f 34/54/34 74/57/74 75/56/75 38/55/38
f 55/7/55 52/4/52 56/58/56
f 72/50/72 75/60/75 74/59/74 71/52/71
f 76/61/76 59/64/59 45/63/45 40/62/40
f 70/51/70 73/65/73 75/60/75 72/50/72
f 28/66/28 33/69/33 73/68/73 70/67/70
f 75/56/75 73/68/73 33/69/33 38/55/38
f 77/70/77 80/71/80 59/64/59 76/61/76
f 58/72/58 77/70/77 76/61/76
f 64/36/64 78/74/78 77/73/77 58/17/58
f 63/44/63 79/75/79 78/74/78 64/36/64
f 53/31/53 76/61/76 40/62/40 7/30/7
f 80/76/80 46/79/46 45/78/45 59/77/59
f 41/29/41 47/81/47 82/80/82 79/28/79
f 79/75/79 82/83/82 81/82/81 78/74/78
f 78/74/78 81/82/81 80/84/80 77/73/77
f 51/39/51 46/79/46 80/76/80 81/38/81
f 76/85/76 53/16/53 58/17/58
o Cylinder
v -0.983606 0.789818 -1.641682
v 0.977624 0.789818 -1.641681
v -0.983605 0.677400 -1.913082
v 0.977624 0.677401 -1.913082
v -0.983605 0.406000 -2.025500
v 0.977624 0.406000 -2.025499
v -0.983605 0.134599 -1.913082
v 0.977624 0.134600 -1.913082
v -0.983605 0.022182 -1.641682
v 0.977624 0.022182 -1.641681
v -0.983605 0.134599 -1.370281
v 0.977624 0.134600 -1.370281
v -0.983606 0.406000 -1.257864
v 0.977624 0.406000 -1.257863
v -0.983606 0.677400 -1.370281
v 0.977624 0.677401 -1.370281
vn -0.0000 1.0000 -0.0000
vn -0.0000 0.7071 -0.7071
vn -0.0000 -0.0000 -1.0000
vn -0.0000 -0.7071 -0.7071
vn -0.0000 -1.0000 -0.0000
vn -0.0000 -0.7071 0.7071
vn -0.0000 -0.0000 1.0000
vn 1.0000 -0.0000 -0.0000
vn -0.0000 0.7071 0.7071
vn -1.0000 -0.0000 -0.0000
vt 1.000000 0.500000
vt 1.000000 1.000000
vt 0.875000 1.000000
vt 0.875000 0.500000
vt 0.750000 1.000000
vt 0.750000 0.500000
vt 0.625000 1.000000
vt 0.625000 0.500000
vt 0.500000 1.000000
vt 0.500000 0.500000
vt 0.375000 1.000000
vt 0.375000 0.500000
vt 0.250000 1.000000
vt 0.250000 0.500000
vt 0.419706 0.419706
vt 0.250000 0.490000
vt 0.080294 0.419706
vt 0.010000 0.250000
vt 0.080294 0.080294
vt 0.250000 0.010000
vt 0.419706 0.080294
vt 0.490000 0.250000
vt 0.125000 1.000000
vt 0.125000 0.500000
vt 0.000000 1.000000
vt 0.000000 0.500000
vt 0.750000 0.490000
vt 0.919706 0.419706
vt 0.990000 0.250000
vt 0.919706 0.080294
vt 0.750000 0.010000
vt 0.580294 0.080294
vt 0.510000 0.250000
vt 0.580294 0.419706
s 1
f 83/86/83 84/87/83 86/88/84 85/89/84
f 85/89/84 86/88/84 88/90/85 87/91/85
f 87/91/85 88/90/85 90/92/86 89/93/86
f 89/93/86 90/92/86 92/94/87 91/95/87
f 91/95/87 92/94/87 94/96/88 93/97/88
f 93/97/88 94/96/88 96/98/89 95/99/89
f 86/100/90 84/101/90 98/102/90 96/103/90 94/104/90 92/105/90 90/106/90 88/107/90
f 95/99/89 96/98/89 98/108/91 97/109/91
f 97/109/91 98/108/91 84/110/83 83/111/83
f 83/112/92 85/113/92 87/114/92 89/115/92 91/116/92 93/117/92 95/118/92 97/119/92
o Cylinder.001
v -0.983606 0.789818 1.395947
v 0.977624 0.789818 1.395947
v -0.983605 0.677400 1.124547
v 0.977624 0.677401 1.124547
v -0.983605 0.406000 1.012129
v 0.977624 0.406000 1.012129
v -0.983605 0.134599 1.124547
v 0.977624 0.134600 1.124547
v -0.983605 0.022182 1.395947
v 0.977624 0.022182 1.395947
v -0.983605 0.134599 1.667347
v 0.977624 0.134600 1.667348
v -0.983606 0.406000 1.779765
v 0.977624 0.406000 1.779765
v -0.983606 0.677400 1.667347
v 0.977624 0.677401 1.667348
vn -0.0000 1.0000 -0.0000
vn -0.0000 0.7071 -0.7071
vn -0.0000 -0.0000 -1.0000
vn -0.0000 -0.7071 -0.7071
vn -0.0000 -1.0000 -0.0000
vn -0.0000 -0.7071 0.7071
vn -0.0000 -0.0000 1.0000
vn 1.0000 -0.0000 -0.0000
vn -0.0000 0.7071 0.7071
vn -1.0000 -0.0000 -0.0000
vt 1.000000 0.500000
vt 1.000000 1.000000
vt 0.875000 1.000000
vt 0.875000 0.500000
vt 0.750000 1.000000
vt 0.750000 0.500000
vt 0.625000 1.000000
vt 0.625000 0.500000
vt 0.500000 1.000000
vt 0.500000 0.500000
vt 0.375000 1.000000
vt 0.375000 0.500000
vt 0.250000 1.000000
vt 0.250000 0.500000
vt 0.419706 0.419706
vt 0.250000 0.490000
vt 0.080294 0.419706
vt 0.010000 0.250000
vt 0.080294 0.080294
vt 0.250000 0.010000
vt 0.419706 0.080294
vt 0.490000 0.250000
vt 0.125000 1.000000
vt 0.125000 0.500000
vt 0.000000 1.000000
vt 0.000000 0.500000
vt 0.750000 0.490000
vt 0.919706 0.419706
vt 0.990000 0.250000
vt 0.919706 0.080294
vt 0.750000 0.010000
vt 0.580294 0.080294
vt 0.510000 0.250000
vt 0.580294 0.419706
s 1
f 99/120/93 100/121/93 102/122/94 101/123/94
f 101/123/94 102/122/94 104/124/95 103/125/95
f 103/125/95 104/124/95 106/126/96 105/127/96
f 105/127/96 106/126/96 108/128/97 107/129/97
f 107/129/97 108/128/97 110/130/98 109/131/98
f 109/131/98 110/130/98 112/132/99 111/133/99
f 102/134/100 100/135/100 114/136/100 112/137/100 110/138/100 108/139/100 106/140/100 104/141/100
f 111/133/99 112/132/99 114/142/101 113/143/101
f 113/143/101 114/142/101 100/144/93 99/145/93
f 99/146/102 101/147/102 103/148/102 105/149/102 107/150/102 109/151/102 111/152/102 113/153/102
